:SAMPLES-PER-SECOND 30
:FULLY-SPECIFIED
:DEGREES
751
root  -10.3639 38.9877 -39.791 133.783 80.2407 137.739
RightUpLeg  17.767 -0.166175 -10.1664
RightLeg  27.4102 10.1199 5.43457
RightFoot  -12.7371 -0.0484769 5.46487
RightToes  -4.65663e-010 0 -3.6325e-017
Spine  3.68171 1.53251 3.401
Spine1  5.48839 3.16725 -6.495
HEad  -10.4921 -12.6967 4.09973
LeftShoulder1  8.5523 -12.1532 -47.6712
LeftArm  -8.61829 29.0776 -24.0434
LeftForeArm  24.4975 -7.14114 -5.0594
LeftHand  -0.244104 0.0205437 5.32207
RightShoulder  6.26091 9.52072 41.818
RightArm  10.1319 -5.01773 33.2112
RightForeArm  2.36625 19.4744 5.45375
RightHand  -1.1281 2.90125 -15.9378
LeftUpLeg  -17.2823 13.7025 -4.14126
LeftLeg  14.7904 3.83081 0.0333695
LeftFoot  6.72408 -0.00432626 -0.218905
LeftToes  -7.27628e-011 -1.6005e-012 -1.37987e-011
752
root  -9.04761 39.0765 -40.453 125.225 79.7429 129.412
RightUpLeg  12.5754 1.57919 -11.7585
RightLeg  38.3949 6.90147 5.51983
RightFoot  -1.90261 -0.761325 9.27727
RightToes  -4.65663e-010 0 -3.6325e-017
Spine  4.71519 1.53603 0.931784
Spine1  4.87424 2.93209 -6.05663
HEad  -11.2251 -12.8307 4.41824
LeftShoulder1  8.64605 -12.2913 -47.7752
LeftArm  -8.35065 27.2349 -23.1759
LeftForeArm  23.8966 -7.18625 -5.19858
LeftHand  -0.244104 0.0205437 5.32207
RightShoulder  6.31838 9.5541 42.1137
RightArm  -0.115051 -5.66622 33.844
RightForeArm  10.5331 11.5383 7.28817
RightHand  -1.113 2.85442 -15.8157
LeftUpLeg  -15.8639 15.4104 -6.2605
LeftLeg  17.298 3.08163 1.02914
LeftFoot  3.15544 -0.026775 0.0478713
LeftToes  -7.27628e-011 -1.6005e-012 -1.37987e-011
753
root  -7.88914 39.1557 -41.0354 113.862 79.6337 118.365
RightUpLeg  5.43671 3.67695 -12.7455
RightLeg  49.7502 3.12317 3.58852
RightFoot  9.45631 -1.57627 9.04778
RightToes  -4.65663e-010 0 -3.6325e-017
Spine  6.09756 1.69683 -0.96475
Spine1  4.75042 2.88518 -6.29971
HEad  -12.2315 -12.2713 4.01664
LeftShoulder1  8.78986 -12.5536 -47.7775
LeftArm  -8.14251 24.5969 -22.4851
LeftForeArm  24.1136 -7.44777 -5.36687
LeftHand  -0.244104 0.0205437 5.32207
RightShoulder  6.35516 9.68041 41.9419
RightArm  -6.15828 -6.30981 34.8779
RightForeArm  14.3713 5.84427 6.91154
RightHand  -1.0822 2.6264 -15.8091
LeftUpLeg  -13.6229 16.1783 -7.26714
LeftLeg  18.5242 4.03015 1.21089
LeftFoot  -0.486873 0.00297583 0.00451657
LeftToes  -7.27628e-011 -1.6005e-012 -1.37987e-011
754
root  -6.72585 39.3312 -41.604 104.087 79.973 109.133
RightUpLeg  -1.11543 5.04425 -12.6827
RightLeg  58.1845 0.385263 0.241118
RightFoot  14.2084 -1.39274 6.52219
RightToes  -4.65663e-010 0 -3.6325e-017
Spine  7.26304 1.51387 -1.90118
Spine1  4.91559 2.50185 -6.10562
HEad  -13.0275 -11.0349 3.01143
LeftShoulder1  8.9032 -12.6799 -48.02
LeftArm  -7.84034 21.4933 -21.6483
LeftForeArm  24.7068 -7.96612 -5.61268
LeftHand  -0.244104 0.0205437 5.32207
RightShoulder  6.42768 9.87528 41.7922
RightArm  -6.43595 -7.14204 35.2691
RightForeArm  14.9691 3.85089 6.55436
RightHand  -1.04256 2.33842 -15.7874
LeftUpLeg  -10.4704 16.0391 -6.96077
LeftLeg  18.3489 5.75524 0.691602
LeftFoot  -2.57154 0.00666335 0.114422
LeftToes  -7.27628e-011 -1.6005e-012 -1.37987e-011
755
root  -5.50218 39.6857 -42.1774 101.602 80.8735 107.138
RightUpLeg  -6.37197 4.36648 -11.4436
RightLeg  62.3969 -1.23196 -3.06422
RightFoot  12.5614 -0.815714 4.25192
RightToes  -4.65663e-010 0 -3.6325e-017
Spine  7.92725 0.632218 -1.81922
Spine1  4.93298 1.42587 -4.84931
HEad  -13.3477 -9.63284 1.97299
LeftShoulder1  8.9342 -12.6191 -48.3722
LeftArm  -7.61987 18.0573 -20.7606
LeftForeArm  25.3416 -8.31318 -5.82919
LeftHand  -0.244104 0.0205437 5.32207
RightShoulder  6.45697 9.93654 41.7916
RightArm  -4.42402 -8.5073 34.7457
RightForeArm  15.95 4.95177 7.07014
RightHand  -0.98571 2.0541 -15.4916
LeftUpLeg  -6.4862 14.5081 -5.63521
LeftLeg  16.2809 7.96734 -0.154679
LeftFoot  -3.61832 0.0198267 0.0238814
LeftToes  -7.27628e-011 -1.6005e-012 -1.37987e-011
